HIERARCHY
ROOT hip
{
  OFFSET 0 0 0
  CHANNELS 6 Xposition Yposition Zposition Zrotation Yrotation Xrotation
  JOINT abdomen
  {
    OFFSET 0 20.6881 -0.73152
    CHANNELS 3 Zrotation Xrotation Yrotation
    JOINT chest
    {
      OFFSET 0 11.7043 -0.48768
      CHANNELS 3 Zrotation Xrotation Yrotation
      JOINT neck
      {
        OFFSET 0 22.1894 -2.19456
        CHANNELS 3 Zrotation Xrotation Yrotation
        JOINT head
        {
          OFFSET -0.24384 7.07133 1.2192
          CHANNELS 3 Zrotation Xrotation Yrotation
          JOINT leftEye
          {
            OFFSET 4.14528 8.04674 8.04672
            CHANNELS 3 Zrotation Xrotation Yrotation
            End Site
            {
              OFFSET 1 0 0
            }
          }
          JOINT rightEye
          {
            OFFSET -3.6576 8.04674 8.04672
            CHANNELS 3 Zrotation Xrotation Yrotation
            End Site
            {
              OFFSET 1 0 0
            }
          }
        }
      }
      JOINT rCollar
      {
        OFFSET -2.68224 19.2634 -4.8768
        CHANNELS 3 Zrotation Xrotation Yrotation
        JOINT rShldr
        {
          OFFSET -8.77824 -1.95073 1.46304
          CHANNELS 3 Zrotation Xrotation Yrotation
          JOINT rForeArm
          {
            OFFSET -28.1742 -1.7115 0.48768
            CHANNELS 3 Zrotation Xrotation Yrotation
            JOINT rHand
            {
              OFFSET -22.5879 0.773209 7.07136
              CHANNELS 3 Zrotation Xrotation Yrotation
              JOINT rThumb1
              {
                OFFSET -1.2192 -0.487915 3.41376
                CHANNELS 3 Zrotation Xrotation Yrotation
                JOINT rThumb2
                {
                  OFFSET -3.37035 -0.52449 3.41376
                  CHANNELS 3 Zrotation Xrotation Yrotation
                  End Site
                  {
                    OFFSET -1.78271 -1.18214 1.43049
                  }
                }
              }
              JOINT rIndex1
              {
                OFFSET -7.75947 0.938293 5.60832
                CHANNELS 3 Zrotation Xrotation Yrotation
                JOINT rIndex2
                {
                  OFFSET -2.54057 -0.884171 1.56538
                  CHANNELS 3 Zrotation Xrotation Yrotation
                  End Site
                  {
                    OFFSET -1.62519 -0.234802 1.16502
                  }
                }
              }
              JOINT rMid1
              {
                OFFSET -8.24714 1.18213 3.41376
                CHANNELS 3 Zrotation Xrotation Yrotation
                JOINT rMid2
                {
                  OFFSET -3.10165 -0.590103 1.0647
                  CHANNELS 3 Zrotation Xrotation Yrotation
                  End Site
                  {
                    OFFSET -2.48547 -0.328903 0.83742
                  }
                }
              }
              JOINT rRing1
              {
                OFFSET -8.82822 0.546677 1.51678
                CHANNELS 3 Zrotation Xrotation Yrotation
                JOINT rRing2
                {
                  OFFSET -2.60934 -0.819778 -0.0198488
                  CHANNELS 3 Zrotation Xrotation Yrotation
                  End Site
                  {
                    OFFSET -2.33842 -0.294052 0.168128
                  }
                }
              }
              JOINT rPinky1
              {
                OFFSET -8.27202 -0.0477905 -0.4584
                CHANNELS 3 Zrotation Xrotation Yrotation
                JOINT rPinky2
                {
                  OFFSET -1.82734 -0.647385 -0.700984
                  CHANNELS 3 Zrotation Xrotation Yrotation
                  End Site
                  {
                    OFFSET -1.69225 -0.51767 -0.607171
                  }
                }
              }
            }
          }
        }
      }
      JOINT lCollar
      {
        OFFSET 2.68224 19.2634 -4.8768
        CHANNELS 3 Zrotation Xrotation Yrotation
        JOINT lShldr
        {
          OFFSET 8.77824 -1.95073 1.46304
          CHANNELS 3 Zrotation Xrotation Yrotation
          JOINT lForeArm
          {
            OFFSET 28.1742 -1.7115 0.48768
            CHANNELS 3 Zrotation Xrotation Yrotation
            JOINT lHand
            {
              OFFSET 22.5879 0.773209 7.07136
              CHANNELS 3 Zrotation Xrotation Yrotation
              JOINT lThumb1
              {
                OFFSET 1.2192 -0.487915 3.41376
                CHANNELS 3 Zrotation Xrotation Yrotation
                JOINT lThumb2
                {
                  OFFSET 3.37035 -0.52449 3.41376
                  CHANNELS 3 Zrotation Xrotation Yrotation
                  End Site
                  {
                    OFFSET 1.78271 -1.18214 1.43049
                  }
                }
              }
              JOINT lIndex1
              {
                OFFSET 7.75947 0.938293 5.60832
                CHANNELS 3 Zrotation Xrotation Yrotation
                JOINT lIndex2
                {
                  OFFSET 2.54057 -0.884171 1.56538
                  CHANNELS 3 Zrotation Xrotation Yrotation
                  End Site
                  {
                    OFFSET 1.62519 -0.234802 1.16502
                  }
                }
              }
              JOINT lMid1
              {
                OFFSET 8.24714 1.18213 3.41376
                CHANNELS 3 Zrotation Xrotation Yrotation
                JOINT lMid2
                {
                  OFFSET 3.10165 -0.590103 1.0647
                  CHANNELS 3 Zrotation Xrotation Yrotation
                  End Site
                  {
                    OFFSET 2.48547 -0.328903 0.83742
                  }
                }
              }
              JOINT lRing1
              {
                OFFSET 8.82822 0.546677 1.51678
                CHANNELS 3 Zrotation Xrotation Yrotation
                JOINT lRing2
                {
                  OFFSET 2.60934 -0.819778 -0.0198488
                  CHANNELS 3 Zrotation Xrotation Yrotation
                  End Site
                  {
                    OFFSET 2.33842 -0.294052 0.168128
                  }
                }
              }
              JOINT lPinky1
              {
                OFFSET 8.27202 -0.0477905 -0.4584
                CHANNELS 3 Zrotation Xrotation Yrotation
                JOINT lPinky2
                {
                  OFFSET 1.82734 -0.647385 -0.700984
                  CHANNELS 3 Zrotation Xrotation Yrotation
                  End Site
                  {
                    OFFSET 1.69225 -0.51767 -0.607171
                  }
                }
              }
            }
          }
        }
      }
    }
  }
  JOINT rButtock
  {
    OFFSET -8.77824 4.35084 1.2192
    CHANNELS 3 Zrotation Xrotation Yrotation
    JOINT rThigh
    {
      OFFSET 0 -1.70687 -2.19456
      CHANNELS 3 Zrotation Xrotation Yrotation
      JOINT rShin
      {
        OFFSET 0 -36.8199 0.73152
        CHANNELS 3 Zrotation Xrotation Yrotation
        JOINT rFoot
        {
          OFFSET 0.73152 -45.1104 -5.12064
          CHANNELS 3 Zrotation Xrotation Yrotation
          End Site
          {
            OFFSET -1.1221 -3.69964 12.103
          }
        }
      }
    }
  }
  JOINT lButtock
  {
    OFFSET 8.77824 4.35084 1.2192
    CHANNELS 3 Zrotation Xrotation Yrotation
    JOINT lThigh
    {
      OFFSET 0 -1.70687 -2.19456
      CHANNELS 3 Zrotation Xrotation Yrotation
      JOINT lShin
      {
        OFFSET 0 -36.8199 0.73152
        CHANNELS 3 Zrotation Xrotation Yrotation
        JOINT lFoot
        {
          OFFSET -0.73152 -45.1104 -5.12064
          CHANNELS 3 Zrotation Xrotation Yrotation
          End Site
          {
            OFFSET 1.1221 -3.69964 12.103
          }
        }
      }
    }
  }
}
MOTION
Frames:	4
Frame Time:	0.00833333
26.8866 75.2692 -14.6459 -168.192 -82.8342 168.294 -5.10582 19.4195 1.93729 1.15955 -0.531051 0.0413782 -14.5548 12.8531 -7.83779 36.9397 -43.8326 -2.04581 -0.0 0.0 0.0 -0.0 0.0 0.0 1.60285e-14 1.03701e-13 1.36795e-13 15.3127 -12.6266 67.2053 -23.6508 -18.4588 48.5232 -0.00224359 -1.35358 -0.19027 -8.04622e-10 -5.46127e-12 -3.20439e-10 -1.38893e-09 -9.171e-12 -5.53863e-10 -8.04621e-10 -5.46428e-12 -3.2046e-10 7.73091 5.47488 0.417314 -8.0462e-10 -5.46306e-12 -3.20443e-10 2.90554 0.965183 0.102902 -8.04615e-10 -5.46194e-12 -3.20441e-10 10.2786 0.731801 0.0259123 -8.04621e-10 -5.46108e-12 -3.20436e-10 2.22167 -0.733487 -0.20892 1.59113e-14 1.03703e-13 1.36644e-13 -7.95593 -12.0194 -58.4744 24.0534 -19.1973 -49.7787 4.80328e-05 0.194255 -0.0273009 3.96908e-11 -9.477e-10 6.87508e-10 6.84297e-11 -1.63788e-09 1.18681e-09 3.96868e-11 -9.47697e-10 6.87527e-10 -7.73091 5.47488 -0.417314 3.96921e-11 -9.47697e-10 6.87503e-10 -2.90554 0.965183 -0.102902 3.96818e-11 -9.47696e-10 6.87506e-10 -10.2786 0.731801 -0.0259123 3.96975e-11 -9.47694e-10 6.875e-10 -2.22167 -0.733487 0.20892 -2.03217e-16 0.0 -3.88251e-19 -6.78642 -35.2413 -7.45167 -1.10407 60.8069 1.65303 -6.77872 -17.2789 -15.0291 2.03217e-16 0.0 3.88251e-19 11.5179 -35.2531 14.8999 1.29528 64.0937 -1.98223 0.285753 -20.5059 -0.471916
26.8859 75.2944 -14.6238 -168.891 -82.8594 168.97 -5.07426 19.4308 1.94091 1.14436 -0.565276 0.0443382 -14.5497 12.7847 -7.83994 36.8346 -43.6398 -2.12657 -0.0 0.0 0.0 -0.0 0.0 0.0 2.95852e-14 -1.27125e-13 1.24091e-13 15.3527 -12.6613 67.1889 -23.6488 -18.4553 48.5171 -0.00216682 -1.32904 -0.186818 -1.03172e-09 -2.41916e-10 -7.20256e-10 -1.78028e-09 -4.17206e-10 -1.24415e-09 -1.03172e-09 -2.41919e-10 -7.20278e-10 7.73091 5.47488 0.417314 -1.03172e-09 -2.41917e-10 -7.20262e-10 2.90554 0.965183 0.102902 -1.03171e-09 -2.41916e-10 -7.20259e-10 10.2786 0.731801 0.0259123 -1.03172e-09 -2.41915e-10 -7.20253e-10 2.22167 -0.733487 -0.20892 2.94557e-14 -1.27122e-13 1.23942e-13 -7.85252 -12.0044 -58.4555 24.0635 -19.2162 -49.8109 3.10586e-05 0.159136 -0.0223652 3.55018e-10 -1.31739e-09 1.25033e-09 6.12795e-10 -2.27654e-09 2.15967e-09 3.55014e-10 -1.31739e-09 1.25035e-09 -7.73091 5.47488 -0.417314 3.55019e-10 -1.31739e-09 1.25032e-09 -2.90554 0.965183 -0.102902 3.55008e-10 -1.31739e-09 1.25033e-09 -10.2786 0.731801 -0.0259123 3.55022e-10 -1.31738e-09 1.25032e-09 -2.22167 -0.733487 0.20892 -2.03217e-16 0.0 -3.88251e-19 -6.75285 -35.2227 -7.43904 -1.10131 60.7635 1.64959 -6.76888 -17.2505 -15.0228 2.03217e-16 0.0 3.88251e-19 11.5356 -35.2356 14.8955 1.29195 64.0539 -1.97853 0.282348 -20.4792 -0.480037
26.8858 75.2983 -14.602 -169.669 -82.8745 169.722 -5.0612 19.4483 1.93556 1.12782 -0.572548 0.0418485 -14.591 12.7758 -7.84041 36.94 -43.5383 -2.11238 -0.0 0.0 0.0 -0.0 0.0 0.0 2.59064e-14 -1.16432e-13 1.12384e-13 15.371 -12.7027 67.1782 -23.6502 -18.4578 48.5214 -0.00229787 -1.37296 -0.192994 -9.31041e-10 -2.36762e-10 -6.76522e-10 -1.60633e-09 -4.08671e-10 -1.16914e-09 -9.31041e-10 -2.36765e-10 -6.76539e-10 7.73091 5.47488 0.417314 -9.31041e-10 -2.36762e-10 -6.76526e-10 2.90554 0.965183 0.102902 -9.31034e-10 -2.36761e-10 -6.76523e-10 10.2786 0.731801 0.0259123 -9.31039e-10 -2.3676e-10 -6.76515e-10 2.22167 -0.733487 -0.20892 2.57824e-14 -1.16431e-13 1.1224e-13 -7.75441 -12.0191 -58.4259 24.0682 -19.2251 -49.826 1.48358e-05 0.121658 -0.0170979 2.33377e-10 -1.25499e-09 1.16154e-09 4.02283e-10 -2.16901e-09 2.00657e-09 2.33372e-10 -1.25498e-09 1.16155e-09 -7.73091 5.47488 -0.417314 2.33378e-10 -1.25498e-09 1.16153e-09 -2.90554 0.965183 -0.102902 2.33366e-10 -1.25498e-09 1.16154e-09 -10.2786 0.731801 -0.0259123 2.3338e-10 -1.25498e-09 1.16153e-09 -2.22167 -0.733487 0.20892 -2.03217e-16 0.0 -3.88251e-19 -6.72567 -35.2097 -7.42747 -1.10062 60.7529 1.6488 -6.7705 -17.2531 -15.0253 2.03217e-16 0.0 3.88251e-19 11.5713 -35.2321 14.9166 1.29193 64.0516 -1.97779 0.263238 -20.4652 -0.524181
26.8876 75.2925 -14.6042 -169.661 -82.8561 169.685 -5.05458 19.4726 1.92578 1.10927 -0.564615 0.0364047 -14.6617 12.801 -7.83955 37.1733 -43.4849 -2.04139 -0.0 0.0 0.0 -0.0 0.0 0.0 1.32475e-14 2.39346e-15 9.53576e-14 15.3776 -12.7468 67.1696 -23.654 -18.4647 48.5331 -0.00259026 -1.46052 -0.205307 -6.33783e-10 -1.10186e-10 -3.94288e-10 -1.09328e-09 -1.90852e-10 -6.82635e-10 -6.3378e-10 -1.10188e-10 -3.94295e-10 7.73091 5.47488 0.417314 -6.33783e-10 -1.10184e-10 -3.94288e-10 2.90554 0.965183 0.102902 -6.33777e-10 -1.10183e-10 -3.94287e-10 10.2786 0.731801 0.0259123 -6.33782e-10 -1.10182e-10 -3.94277e-10 2.22167 -0.733487 -0.20892 1.3142e-14 2.39196e-15 9.5221e-14 -7.6545 -12.0529 -58.3911 24.0704 -19.2292 -49.8329 2.01673e-06 0.0772161 -0.010852 -1.24465e-10 -9.43245e-10 7.14424e-10 -2.16329e-10 -1.63091e-09 1.23436e-09 -1.24469e-10 -9.43245e-10 7.14435e-10 -7.73091 5.47488 -0.417314 -1.24465e-10 -9.43245e-10 7.14419e-10 -2.90554 0.965183 -0.102902 -1.24475e-10 -9.43244e-10 7.14425e-10 -10.2786 0.731801 -0.0259123 -1.24462e-10 -9.43242e-10 7.1442e-10 -2.22167 -0.733487 0.20892 -2.03217e-16 0.0 -3.88251e-19 -6.69413 -35.2004 -7.41219 -1.1015 60.7672 1.64999 -6.78121 -17.2742 -15.0379 2.03217e-16 0.0 3.88251e-19 11.6266 -35.2378 14.9565 1.29448 64.0783 -1.97938 0.233612 -20.4606 -0.592424
